<svg width="35" height="35" viewBox="0 0 35 35" fill="none" xmlns="http://www.w3.org/2000/svg">
<g clip-path="url(#clip0_3_192)">
<path d="M13.3633 3.33334L13.355 5.00001H21.5333L21.5433 3.33334H13.3633Z" fill="white"/>
<path d="M26.6667 5.00168V1.66502C26.6667 0.745008 25.9183 0 25 0C24.08 0 23.3333 0.745008 23.3333 1.66502V5.00168C23.3333 5.92169 24.0816 6.6667 25 6.6667C25.9199 6.66664 26.6667 5.92163 26.6667 5.00168Z" fill="white"/>
<path d="M10.4167 6.66664C11.1067 6.66664 11.6667 6.11002 11.6667 5.41333V1.25337C11.6667 0.561659 11.1083 0 10.4167 0H9.5833C8.89331 0 8.33331 0.556683 8.33331 1.25337V5.41167C8.33331 6.10504 8.89165 6.66664 9.5833 6.66664H10.4167Z" fill="white"/>
<path d="M6.61666 4.66673L6.62501 3.00006H1.04834C0.468325 3.00006 0 3.48502 0 4.08168V33.5867C0 34.1834 0.468325 34.6667 1.04668 34.6667H33.9517C34.5317 34.6667 35 34.1818 35 33.5867V4.08168C35 3.48337 34.53 3 33.9517 3H28.345L28.3367 4.66668H33.3333V13H1.66667V4.66673H6.61666ZM6.66664 33.0001H2.38332C1.98665 33.0001 1.66667 32.7217 1.66667 32.3768V28.0001H6.66664V33.0001ZM6.66664 26.3334H1.66667V21.3334H6.66664V26.3334ZM28.3334 14.6667H33.3334V19.6667H28.3334V14.6667ZM28.3334 21.3334H33.3334V26.3334H28.3334V21.3334ZM28.3334 28.0001H33.3334V32.3768C33.3334 32.7201 33.0117 33.0001 32.6167 33.0001H28.3334V28.0001H28.3334ZM21.6667 14.6667H26.6667V19.6667H21.6667V14.6667ZM21.6667 21.3334H26.6667V26.3334H21.6667V21.3334ZM21.6667 28.0001H26.6667V33.0001H21.6667V28.0001ZM15 14.6667H20V19.6667H15V14.6667ZM15 28.0001H20V33.0001H15V28.0001ZM8.33332 14.6667H13.3333V19.6667H8.33332V14.6667ZM8.33332 21.3334H13.3333V26.3334H8.33332V21.3334ZM8.33332 28.0001H13.3333V33.0001H8.33332V28.0001ZM6.66664 14.6667V19.6667H1.66667V14.6667H6.66664Z" fill="white"/>
</g>
<defs>
<clipPath id="clip0_3_192">
<rect width="35" height="35" fill="white"/>
</clipPath>
</defs>
</svg>
