<svg width="22" height="21" viewBox="0 0 22 21" fill="none" xmlns="http://www.w3.org/2000/svg">
<path d="M18.2291 0.865234H3.02567C1.30916 0.865234 0.00134277 2.07395 0.00134277 3.66039V17.7117C0.00134277 19.2981 1.30916 20.5068 3.02567 20.5068H18.2291C19.9456 20.5068 21.2534 19.2981 21.2534 17.7117V3.66039C21.2534 2.07395 19.9456 0.865234 18.2291 0.865234ZM10.6274 16.5785C14.1421 16.5785 17.003 14.01 17.003 10.9127C17.003 10.3839 16.9213 9.7795 16.7578 9.32623H18.556V17.334C18.556 17.7117 18.2291 18.0894 17.7386 18.0894H3.51611C3.10742 18.0894 2.69872 17.7872 2.69872 17.334V9.25069H4.57872C4.41524 9.7795 4.3335 10.3083 4.3335 10.8371C4.25176 14.01 7.11261 16.5785 10.6274 16.5785ZM10.6274 14.3122C8.3387 14.3122 6.54044 12.6502 6.54044 10.6105C6.54044 8.57079 8.3387 6.9088 10.6274 6.9088C12.9161 6.9088 14.7143 8.57079 14.7143 10.6105C14.7143 12.7257 12.9161 14.3122 10.6274 14.3122ZM18.4743 6.2289C18.4743 6.68217 18.0656 7.05989 17.5752 7.05989H15.2865C14.7961 7.05989 14.3874 6.68217 14.3874 6.2289V4.1892C14.3874 3.73593 14.7961 3.35821 15.2865 3.35821H17.5752C18.0656 3.35821 18.4743 3.73593 18.4743 4.1892V6.2289Z" fill="#8253D8"/>
</svg>
